<mxfile host="app.diagrams.net" modified="2023-11-21T10:12:23.638Z" agent="Mozilla/5.0 (Windows NT 10.0; Win64; x64) AppleWebKit/537.36 (KHTML, like Gecko) Chrome/119.0.0.0 Safari/537.36" etag="cZ5tH_7iUJsOr162ubsO" version="22.1.3" type="device">
  <diagram name="Pagina-1" id="kJE1tzoxOOOQ16JhSrA-">
    <mxGraphModel dx="1917" dy="783" grid="1" gridSize="10" guides="1" tooltips="1" connect="1" arrows="1" fold="1" page="1" pageScale="1" pageWidth="827" pageHeight="1169" math="0" shadow="0">
      <root>
        <mxCell id="0" />
        <mxCell id="1" parent="0" />
        <mxCell id="yAFIMtw9BYB4I-pn7jTb-9" value="&lt;font style=&quot;font-size: 18px;&quot;&gt;SignUp Page&lt;/font&gt;" style="swimlane;whiteSpace=wrap;html=1;align=left;" vertex="1" parent="1">
          <mxGeometry x="140" y="20" width="547" height="540" as="geometry" />
        </mxCell>
        <mxCell id="yAFIMtw9BYB4I-pn7jTb-10" value="&lt;font style=&quot;font-size: 14px;&quot;&gt;e-mail&lt;/font&gt;" style="rounded=0;whiteSpace=wrap;html=1;align=left;" vertex="1" parent="yAFIMtw9BYB4I-pn7jTb-9">
          <mxGeometry x="115.75" y="120" width="339.5" height="30" as="geometry" />
        </mxCell>
        <mxCell id="yAFIMtw9BYB4I-pn7jTb-12" value="&lt;b&gt;&lt;font style=&quot;font-size: 36px;&quot;&gt;CODEKATABATTLE&lt;/font&gt;&lt;/b&gt;" style="text;html=1;align=center;verticalAlign=middle;resizable=0;points=[];autosize=1;strokeColor=none;fillColor=none;" vertex="1" parent="yAFIMtw9BYB4I-pn7jTb-9">
          <mxGeometry x="106" y="30" width="360" height="60" as="geometry" />
        </mxCell>
        <mxCell id="yAFIMtw9BYB4I-pn7jTb-13" value="&lt;font style=&quot;font-size: 18px;&quot;&gt;&lt;b style=&quot;&quot;&gt;SignUp&lt;/b&gt;&lt;/font&gt;" style="rounded=1;html=1;shadow=0;dashed=0;whiteSpace=wrap;fontSize=10;fillColor=#E6E6E6;align=center;strokeColor=#E6E6E6;fontColor=#333333;arcSize=50;" vertex="1" parent="yAFIMtw9BYB4I-pn7jTb-9">
          <mxGeometry x="86" y="480" width="390" height="26.88" as="geometry" />
        </mxCell>
        <mxCell id="yAFIMtw9BYB4I-pn7jTb-11" value="&lt;font style=&quot;font-size: 14px;&quot;&gt;Password&lt;/font&gt;" style="rounded=0;whiteSpace=wrap;html=1;align=left;" vertex="1" parent="yAFIMtw9BYB4I-pn7jTb-9">
          <mxGeometry x="113" y="220" width="344.25" height="30" as="geometry" />
        </mxCell>
        <mxCell id="yAFIMtw9BYB4I-pn7jTb-15" value="" style="whiteSpace=wrap;html=1;aspect=fixed;" vertex="1" parent="yAFIMtw9BYB4I-pn7jTb-9">
          <mxGeometry x="111" y="425" width="30" height="30" as="geometry" />
        </mxCell>
        <mxCell id="yAFIMtw9BYB4I-pn7jTb-28" value="&lt;font style=&quot;font-size: 18px;&quot;&gt;Educator&lt;/font&gt;" style="text;html=1;align=center;verticalAlign=middle;resizable=0;points=[];autosize=1;strokeColor=none;fillColor=none;" vertex="1" parent="yAFIMtw9BYB4I-pn7jTb-9">
          <mxGeometry x="130" y="420" width="100" height="40" as="geometry" />
        </mxCell>
        <mxCell id="yAFIMtw9BYB4I-pn7jTb-29" value="&lt;font style=&quot;font-size: 18px;&quot;&gt;Student&lt;/font&gt;" style="text;html=1;align=center;verticalAlign=middle;resizable=0;points=[];autosize=1;strokeColor=none;fillColor=none;" vertex="1" parent="yAFIMtw9BYB4I-pn7jTb-9">
          <mxGeometry x="290" y="420" width="90" height="40" as="geometry" />
        </mxCell>
        <mxCell id="yAFIMtw9BYB4I-pn7jTb-51" value="&lt;font style=&quot;font-size: 18px;&quot;&gt;Other User Details&lt;/font&gt;" style="rounded=0;whiteSpace=wrap;html=1;align=left;" vertex="1" parent="yAFIMtw9BYB4I-pn7jTb-9">
          <mxGeometry x="111" y="290" width="344.25" height="90" as="geometry" />
        </mxCell>
        <mxCell id="yAFIMtw9BYB4I-pn7jTb-52" value="" style="whiteSpace=wrap;html=1;aspect=fixed;" vertex="1" parent="yAFIMtw9BYB4I-pn7jTb-9">
          <mxGeometry x="260" y="425" width="30" height="30" as="geometry" />
        </mxCell>
        <mxCell id="yAFIMtw9BYB4I-pn7jTb-65" value="&lt;font style=&quot;font-size: 18px;&quot;&gt;LogIn Page&lt;/font&gt;" style="swimlane;whiteSpace=wrap;html=1;align=left;" vertex="1" parent="1">
          <mxGeometry x="141" y="610" width="545" height="518" as="geometry" />
        </mxCell>
        <mxCell id="yAFIMtw9BYB4I-pn7jTb-66" value="&lt;font style=&quot;font-size: 14px;&quot;&gt;e-mail&lt;/font&gt;" style="rounded=0;whiteSpace=wrap;html=1;align=left;" vertex="1" parent="yAFIMtw9BYB4I-pn7jTb-65">
          <mxGeometry x="116.25" y="120" width="339.5" height="30" as="geometry" />
        </mxCell>
        <mxCell id="yAFIMtw9BYB4I-pn7jTb-67" value="&lt;b&gt;&lt;font style=&quot;font-size: 36px;&quot;&gt;CODEKATABATTLE&lt;/font&gt;&lt;/b&gt;" style="text;html=1;align=center;verticalAlign=middle;resizable=0;points=[];autosize=1;strokeColor=none;fillColor=none;" vertex="1" parent="yAFIMtw9BYB4I-pn7jTb-65">
          <mxGeometry x="106" y="30" width="360" height="60" as="geometry" />
        </mxCell>
        <mxCell id="yAFIMtw9BYB4I-pn7jTb-68" value="&lt;font style=&quot;font-size: 18px;&quot;&gt;&lt;b style=&quot;&quot;&gt;LogIn&lt;/b&gt;&lt;/font&gt;" style="rounded=1;html=1;shadow=0;dashed=0;whiteSpace=wrap;fontSize=10;fillColor=#E6E6E6;align=center;strokeColor=#E6E6E6;fontColor=#333333;arcSize=50;" vertex="1" parent="yAFIMtw9BYB4I-pn7jTb-65">
          <mxGeometry x="91" y="380" width="390" height="26.88" as="geometry" />
        </mxCell>
        <mxCell id="yAFIMtw9BYB4I-pn7jTb-69" value="&lt;font style=&quot;font-size: 14px;&quot;&gt;Password&lt;/font&gt;" style="rounded=0;whiteSpace=wrap;html=1;align=left;" vertex="1" parent="yAFIMtw9BYB4I-pn7jTb-65">
          <mxGeometry x="116.25" y="255" width="344.25" height="30" as="geometry" />
        </mxCell>
        <mxCell id="yAFIMtw9BYB4I-pn7jTb-96" value="&lt;font style=&quot;font-size: 18px;&quot;&gt;StudentHome&lt;/font&gt;" style="swimlane;whiteSpace=wrap;html=1;align=left;" vertex="1" parent="1">
          <mxGeometry x="174" y="1200" width="480" height="450" as="geometry" />
        </mxCell>
        <mxCell id="yAFIMtw9BYB4I-pn7jTb-97" value="Search Student by Username" style="strokeWidth=1;shadow=0;dashed=0;align=center;html=1;shape=mxgraph.mockup.forms.searchBox;strokeColor=#999999;mainText=;strokeColor2=#008cff;fontColor=#666666;fontSize=17;align=left;spacingLeft=3;whiteSpace=wrap;" vertex="1" parent="yAFIMtw9BYB4I-pn7jTb-96">
          <mxGeometry x="30" y="40" width="400" height="30" as="geometry" />
        </mxCell>
        <mxCell id="yAFIMtw9BYB4I-pn7jTb-98" value="Join Tournament" style="rounded=1;html=1;shadow=0;dashed=0;whiteSpace=wrap;fontSize=10;fillColor=#E6E6E6;align=center;strokeColor=#E6E6E6;fontColor=#333333;arcSize=0;" vertex="1" parent="yAFIMtw9BYB4I-pn7jTb-96">
          <mxGeometry x="260" y="110" width="170" height="30" as="geometry" />
        </mxCell>
        <mxCell id="yAFIMtw9BYB4I-pn7jTb-99" value="Create Team" style="rounded=1;html=1;shadow=0;dashed=0;whiteSpace=wrap;fontSize=10;fillColor=#E6E6E6;align=center;strokeColor=#E6E6E6;fontColor=#333333;arcSize=0;" vertex="1" parent="yAFIMtw9BYB4I-pn7jTb-96">
          <mxGeometry x="260" y="390" width="170" height="30" as="geometry" />
        </mxCell>
        <mxCell id="yAFIMtw9BYB4I-pn7jTb-100" value="Join Battle" style="rounded=1;html=1;shadow=0;dashed=0;whiteSpace=wrap;fontSize=10;fillColor=#E6E6E6;align=center;strokeColor=#E6E6E6;fontColor=#333333;arcSize=0;" vertex="1" parent="yAFIMtw9BYB4I-pn7jTb-96">
          <mxGeometry x="260" y="250" width="170" height="30" as="geometry" />
        </mxCell>
        <mxCell id="yAFIMtw9BYB4I-pn7jTb-101" value="Show Rankings" style="rounded=1;html=1;shadow=0;dashed=0;whiteSpace=wrap;fontSize=10;fillColor=#FFFF33;align=center;strokeColor=#E6E6E6;fontColor=#333333;arcSize=0;" vertex="1" parent="yAFIMtw9BYB4I-pn7jTb-96">
          <mxGeometry x="30" y="110" width="170" height="30" as="geometry" />
        </mxCell>
        <mxCell id="yAFIMtw9BYB4I-pn7jTb-102" value="MyTournaments" style="rounded=1;html=1;shadow=0;dashed=0;whiteSpace=wrap;fontSize=10;fillColor=#FFFF33;align=center;strokeColor=#E6E6E6;fontColor=#333333;arcSize=0;" vertex="1" parent="yAFIMtw9BYB4I-pn7jTb-96">
          <mxGeometry x="30" y="300" width="170" height="30" as="geometry" />
        </mxCell>
        <mxCell id="yAFIMtw9BYB4I-pn7jTb-103" value="MyBadges" style="rounded=1;html=1;shadow=0;dashed=0;whiteSpace=wrap;fontSize=10;fillColor=#FFFF33;align=center;strokeColor=#E6E6E6;fontColor=#333333;arcSize=0;" vertex="1" parent="yAFIMtw9BYB4I-pn7jTb-96">
          <mxGeometry x="30" y="390" width="170" height="30" as="geometry" />
        </mxCell>
        <mxCell id="yAFIMtw9BYB4I-pn7jTb-104" value="MyProfile" style="rounded=1;html=1;shadow=0;dashed=0;whiteSpace=wrap;fontSize=10;fillColor=#FFFF33;align=center;strokeColor=#E6E6E6;fontColor=#333333;arcSize=0;" vertex="1" parent="yAFIMtw9BYB4I-pn7jTb-96">
          <mxGeometry x="30" y="200" width="170" height="30" as="geometry" />
        </mxCell>
        <mxCell id="yAFIMtw9BYB4I-pn7jTb-105" value="&lt;font style=&quot;font-size: 18px;&quot;&gt;EducatorHome&lt;/font&gt;" style="swimlane;whiteSpace=wrap;html=1;align=left;" vertex="1" parent="1">
          <mxGeometry x="174" y="1810" width="480" height="450" as="geometry" />
        </mxCell>
        <mxCell id="yAFIMtw9BYB4I-pn7jTb-106" value="Search Student by Username" style="strokeWidth=1;shadow=0;dashed=0;align=center;html=1;shape=mxgraph.mockup.forms.searchBox;strokeColor=#999999;mainText=;strokeColor2=#008cff;fontColor=#666666;fontSize=17;align=left;spacingLeft=3;whiteSpace=wrap;" vertex="1" parent="yAFIMtw9BYB4I-pn7jTb-105">
          <mxGeometry x="30" y="40" width="400" height="30" as="geometry" />
        </mxCell>
        <mxCell id="yAFIMtw9BYB4I-pn7jTb-107" value="Create Tournament" style="rounded=1;html=1;shadow=0;dashed=0;whiteSpace=wrap;fontSize=10;fillColor=#E6E6E6;align=center;strokeColor=#E6E6E6;fontColor=#333333;arcSize=0;" vertex="1" parent="yAFIMtw9BYB4I-pn7jTb-105">
          <mxGeometry x="260" y="110" width="170" height="30" as="geometry" />
        </mxCell>
        <mxCell id="yAFIMtw9BYB4I-pn7jTb-108" value="Invite Educators" style="rounded=1;html=1;shadow=0;dashed=0;whiteSpace=wrap;fontSize=10;fillColor=#E6E6E6;align=center;strokeColor=#E6E6E6;fontColor=#333333;arcSize=0;" vertex="1" parent="yAFIMtw9BYB4I-pn7jTb-105">
          <mxGeometry x="260" y="390" width="170" height="30" as="geometry" />
        </mxCell>
        <mxCell id="yAFIMtw9BYB4I-pn7jTb-109" value="Create Battle" style="rounded=1;html=1;shadow=0;dashed=0;whiteSpace=wrap;fontSize=10;fillColor=#E6E6E6;align=center;strokeColor=#E6E6E6;fontColor=#333333;arcSize=0;" vertex="1" parent="yAFIMtw9BYB4I-pn7jTb-105">
          <mxGeometry x="260" y="250" width="170" height="30" as="geometry" />
        </mxCell>
        <mxCell id="yAFIMtw9BYB4I-pn7jTb-110" value="Show Rankings" style="rounded=1;html=1;shadow=0;dashed=0;whiteSpace=wrap;fontSize=10;fillColor=#FFFF33;align=center;strokeColor=#E6E6E6;fontColor=#333333;arcSize=0;" vertex="1" parent="yAFIMtw9BYB4I-pn7jTb-105">
          <mxGeometry x="30" y="110" width="170" height="30" as="geometry" />
        </mxCell>
        <mxCell id="yAFIMtw9BYB4I-pn7jTb-111" value="Manage Tournaments" style="rounded=1;html=1;shadow=0;dashed=0;whiteSpace=wrap;fontSize=10;fillColor=#FFFF33;align=center;strokeColor=#E6E6E6;fontColor=#333333;arcSize=0;" vertex="1" parent="yAFIMtw9BYB4I-pn7jTb-105">
          <mxGeometry x="30" y="300" width="170" height="30" as="geometry" />
        </mxCell>
        <mxCell id="yAFIMtw9BYB4I-pn7jTb-112" value="Manage Badges" style="rounded=1;html=1;shadow=0;dashed=0;whiteSpace=wrap;fontSize=10;fillColor=#FFFF33;align=center;strokeColor=#E6E6E6;fontColor=#333333;arcSize=0;" vertex="1" parent="yAFIMtw9BYB4I-pn7jTb-105">
          <mxGeometry x="30" y="390" width="170" height="30" as="geometry" />
        </mxCell>
        <mxCell id="yAFIMtw9BYB4I-pn7jTb-113" value="MyProfile" style="rounded=1;html=1;shadow=0;dashed=0;whiteSpace=wrap;fontSize=10;fillColor=#FFFF33;align=center;strokeColor=#E6E6E6;fontColor=#333333;arcSize=0;" vertex="1" parent="yAFIMtw9BYB4I-pn7jTb-105">
          <mxGeometry x="30" y="200" width="170" height="30" as="geometry" />
        </mxCell>
        <mxCell id="yAFIMtw9BYB4I-pn7jTb-114" value="&lt;font style=&quot;font-size: 18px;&quot;&gt;RankingPage(Per Tournament)&lt;/font&gt;" style="swimlane;whiteSpace=wrap;html=1;align=left;" vertex="1" parent="1">
          <mxGeometry x="173" y="2698" width="480" height="450" as="geometry" />
        </mxCell>
        <mxCell id="yAFIMtw9BYB4I-pn7jTb-115" value="&lt;font style=&quot;font-size: 18px;&quot;&gt;Tournament Rank&lt;/font&gt;" style="rounded=1;html=1;shadow=0;dashed=0;whiteSpace=wrap;fontSize=10;fillColor=#E6E6E6;align=center;strokeColor=#E6E6E6;fontColor=#333333;arcSize=0;" vertex="1" parent="yAFIMtw9BYB4I-pn7jTb-114">
          <mxGeometry x="109" y="90" width="263" height="50" as="geometry" />
        </mxCell>
        <mxCell id="yAFIMtw9BYB4I-pn7jTb-116" value="&lt;font style=&quot;font-size: 18px;&quot;&gt;Battles Rank&lt;/font&gt;" style="rounded=1;html=1;shadow=0;dashed=0;whiteSpace=wrap;fontSize=10;fillColor=#E6E6E6;align=center;strokeColor=#E6E6E6;fontColor=#333333;arcSize=0;" vertex="1" parent="yAFIMtw9BYB4I-pn7jTb-114">
          <mxGeometry x="108.5" y="340" width="263" height="50" as="geometry" />
        </mxCell>
      </root>
    </mxGraphModel>
  </diagram>
</mxfile>
